<mxfile host="app.diagrams.net" modified="2023-10-17T16:36:05.278Z" agent="Mozilla/5.0 (Windows NT 10.0; Win64; x64) AppleWebKit/537.36 (KHTML, like Gecko) Chrome/118.0.0.0 Safari/537.36" etag="LF8ECl5PVmQZzU5Bb0mx" version="22.0.4" type="github">
  <diagram id="R2lEEEUBdFMjLlhIrx00" name="Page-1">
    <mxGraphModel dx="1050" dy="574" grid="1" gridSize="10" guides="1" tooltips="1" connect="1" arrows="1" fold="1" page="1" pageScale="1" pageWidth="850" pageHeight="1100" math="0" shadow="0" extFonts="Permanent Marker^https://fonts.googleapis.com/css?family=Permanent+Marker">
      <root>
        <mxCell id="0" />
        <mxCell id="1" parent="0" />
        <mxCell id="Z31dPtnMBRGQAZ9xcy2b-1" value="Jugador" style="swimlane;childLayout=stackLayout;horizontal=1;startSize=50;horizontalStack=0;rounded=1;fontSize=14;fontStyle=0;strokeWidth=2;resizeParent=0;resizeLast=1;shadow=0;dashed=0;align=center;arcSize=4;whiteSpace=wrap;html=1;" parent="1" vertex="1">
          <mxGeometry x="110" y="340" width="160" height="120" as="geometry" />
        </mxCell>
        <mxCell id="Z31dPtnMBRGQAZ9xcy2b-2" value="&lt;font style=&quot;font-size: 14px;&quot;&gt;&lt;b&gt;+id_jugador: int&lt;/b&gt;&lt;/font&gt;&lt;br&gt;+nombre&lt;br&gt;+edad" style="align=left;strokeColor=none;fillColor=none;spacingLeft=4;fontSize=12;verticalAlign=top;resizable=0;rotatable=0;part=1;html=1;" parent="Z31dPtnMBRGQAZ9xcy2b-1" vertex="1">
          <mxGeometry y="50" width="160" height="70" as="geometry" />
        </mxCell>
        <mxCell id="Z31dPtnMBRGQAZ9xcy2b-3" value="Equipo" style="swimlane;childLayout=stackLayout;horizontal=1;startSize=50;horizontalStack=0;rounded=1;fontSize=14;fontStyle=0;strokeWidth=2;resizeParent=0;resizeLast=1;shadow=0;dashed=0;align=center;arcSize=4;whiteSpace=wrap;html=1;" parent="1" vertex="1">
          <mxGeometry x="110" y="50" width="160" height="120" as="geometry" />
        </mxCell>
        <mxCell id="Z31dPtnMBRGQAZ9xcy2b-4" value="&lt;font style=&quot;font-size: 14px;&quot;&gt;&lt;b&gt;+id_equipo: int&lt;/b&gt;&lt;/font&gt;&lt;br&gt;+nombre&lt;br&gt;+presidente" style="align=left;strokeColor=none;fillColor=none;spacingLeft=4;fontSize=12;verticalAlign=top;resizable=0;rotatable=0;part=1;html=1;" parent="Z31dPtnMBRGQAZ9xcy2b-3" vertex="1">
          <mxGeometry y="50" width="160" height="70" as="geometry" />
        </mxCell>
        <mxCell id="Z31dPtnMBRGQAZ9xcy2b-5" value="Estadio" style="swimlane;childLayout=stackLayout;horizontal=1;startSize=50;horizontalStack=0;rounded=1;fontSize=14;fontStyle=0;strokeWidth=2;resizeParent=0;resizeLast=1;shadow=0;dashed=0;align=center;arcSize=4;whiteSpace=wrap;html=1;" parent="1" vertex="1">
          <mxGeometry x="570" y="40" width="160" height="120" as="geometry" />
        </mxCell>
        <mxCell id="Z31dPtnMBRGQAZ9xcy2b-6" value="&lt;font style=&quot;font-size: 14px;&quot;&gt;&lt;b&gt;+id_estadios: int&lt;/b&gt;&lt;/font&gt;&lt;br&gt;+nombre" style="align=left;strokeColor=none;fillColor=none;spacingLeft=4;fontSize=12;verticalAlign=top;resizable=0;rotatable=0;part=1;html=1;" parent="Z31dPtnMBRGQAZ9xcy2b-5" vertex="1">
          <mxGeometry y="50" width="160" height="70" as="geometry" />
        </mxCell>
        <mxCell id="Z31dPtnMBRGQAZ9xcy2b-7" value="Arbitro" style="swimlane;childLayout=stackLayout;horizontal=1;startSize=50;horizontalStack=0;rounded=1;fontSize=14;fontStyle=0;strokeWidth=2;resizeParent=0;resizeLast=1;shadow=0;dashed=0;align=center;arcSize=4;whiteSpace=wrap;html=1;" parent="1" vertex="1">
          <mxGeometry x="570" y="600" width="160" height="120" as="geometry" />
        </mxCell>
        <mxCell id="Z31dPtnMBRGQAZ9xcy2b-8" value="&lt;font style=&quot;font-size: 14px;&quot;&gt;&lt;b&gt;+id_arbitro: int&lt;/b&gt;&lt;/font&gt;&lt;br&gt;+nombre" style="align=left;strokeColor=none;fillColor=none;spacingLeft=4;fontSize=12;verticalAlign=top;resizable=0;rotatable=0;part=1;html=1;" parent="Z31dPtnMBRGQAZ9xcy2b-7" vertex="1">
          <mxGeometry y="50" width="160" height="70" as="geometry" />
        </mxCell>
        <mxCell id="Z31dPtnMBRGQAZ9xcy2b-9" value="Partido" style="swimlane;childLayout=stackLayout;horizontal=1;startSize=50;horizontalStack=0;rounded=1;fontSize=14;fontStyle=0;strokeWidth=2;resizeParent=0;resizeLast=1;shadow=0;dashed=0;align=center;arcSize=4;whiteSpace=wrap;html=1;" parent="1" vertex="1">
          <mxGeometry x="570" y="330" width="160" height="120" as="geometry" />
        </mxCell>
        <mxCell id="Z31dPtnMBRGQAZ9xcy2b-10" value="&lt;font style=&quot;font-size: 14px;&quot;&gt;&lt;b&gt;+id_partido: int&lt;/b&gt;&lt;/font&gt;&lt;br&gt;+jornada&lt;br&gt;+fecha" style="align=left;strokeColor=none;fillColor=none;spacingLeft=4;fontSize=12;verticalAlign=top;resizable=0;rotatable=0;part=1;html=1;" parent="Z31dPtnMBRGQAZ9xcy2b-9" vertex="1">
          <mxGeometry y="50" width="160" height="70" as="geometry" />
        </mxCell>
        <mxCell id="Z31dPtnMBRGQAZ9xcy2b-11" value="Ser" style="shape=rhombus;perimeter=rhombusPerimeter;whiteSpace=wrap;html=1;align=center;" parent="1" vertex="1">
          <mxGeometry x="130" y="220" width="120" height="60" as="geometry" />
        </mxCell>
        <mxCell id="Z31dPtnMBRGQAZ9xcy2b-17" value="" style="fontSize=12;html=1;endArrow=ERoneToMany;rounded=0;exitX=0.5;exitY=1;exitDx=0;exitDy=0;entryX=0.5;entryY=0;entryDx=0;entryDy=0;" parent="1" source="Z31dPtnMBRGQAZ9xcy2b-11" target="Z31dPtnMBRGQAZ9xcy2b-1" edge="1">
          <mxGeometry width="100" height="100" relative="1" as="geometry">
            <mxPoint x="460" y="310" as="sourcePoint" />
            <mxPoint x="560" y="210" as="targetPoint" />
          </mxGeometry>
        </mxCell>
        <mxCell id="Z31dPtnMBRGQAZ9xcy2b-21" value="Jugar" style="shape=rhombus;perimeter=rhombusPerimeter;whiteSpace=wrap;html=1;align=center;" parent="1" vertex="1">
          <mxGeometry x="360" y="350" width="120" height="60" as="geometry" />
        </mxCell>
        <mxCell id="Z31dPtnMBRGQAZ9xcy2b-22" value="" style="edgeStyle=entityRelationEdgeStyle;fontSize=12;html=1;endArrow=ERoneToMany;rounded=0;exitX=1;exitY=0.5;exitDx=0;exitDy=0;entryX=0;entryY=0;entryDx=0;entryDy=0;" parent="1" source="Z31dPtnMBRGQAZ9xcy2b-21" target="Z31dPtnMBRGQAZ9xcy2b-10" edge="1">
          <mxGeometry width="100" height="100" relative="1" as="geometry">
            <mxPoint x="460" y="27.5" as="sourcePoint" />
            <mxPoint x="550" y="290" as="targetPoint" />
          </mxGeometry>
        </mxCell>
        <mxCell id="Z31dPtnMBRGQAZ9xcy2b-23" value="" style="edgeStyle=entityRelationEdgeStyle;fontSize=12;html=1;endArrow=ERoneToMany;rounded=0;entryX=1;entryY=0.25;entryDx=0;entryDy=0;" parent="1" source="Z31dPtnMBRGQAZ9xcy2b-21" target="Z31dPtnMBRGQAZ9xcy2b-4" edge="1">
          <mxGeometry width="100" height="100" relative="1" as="geometry">
            <mxPoint x="460" y="210" as="sourcePoint" />
            <mxPoint x="370" y="210" as="targetPoint" />
          </mxGeometry>
        </mxCell>
        <mxCell id="Z31dPtnMBRGQAZ9xcy2b-24" value="Celebrar" style="shape=rhombus;perimeter=rhombusPerimeter;whiteSpace=wrap;html=1;align=center;" parent="1" vertex="1">
          <mxGeometry x="590" y="230" width="120" height="60" as="geometry" />
        </mxCell>
        <mxCell id="Z31dPtnMBRGQAZ9xcy2b-26" value="" style="fontSize=12;html=1;endArrow=ERzeroToMany;endFill=1;rounded=0;exitX=0.5;exitY=1;exitDx=0;exitDy=0;entryX=0.5;entryY=0;entryDx=0;entryDy=0;" parent="1" source="Z31dPtnMBRGQAZ9xcy2b-24" target="Z31dPtnMBRGQAZ9xcy2b-9" edge="1">
          <mxGeometry width="100" height="100" relative="1" as="geometry">
            <mxPoint x="720" y="170" as="sourcePoint" />
            <mxPoint x="720" y="240" as="targetPoint" />
          </mxGeometry>
        </mxCell>
        <mxCell id="Z31dPtnMBRGQAZ9xcy2b-27" value="Arbitrar" style="shape=rhombus;perimeter=rhombusPerimeter;whiteSpace=wrap;html=1;align=center;" parent="1" vertex="1">
          <mxGeometry x="590" y="500" width="120" height="70" as="geometry" />
        </mxCell>
        <mxCell id="Z31dPtnMBRGQAZ9xcy2b-29" value="Resultado" style="ellipse;whiteSpace=wrap;html=1;align=center;" parent="1" vertex="1">
          <mxGeometry x="370" y="280" width="100" height="40" as="geometry" />
        </mxCell>
        <mxCell id="Z31dPtnMBRGQAZ9xcy2b-35" value="" style="endArrow=none;html=1;rounded=0;exitX=0.5;exitY=1;exitDx=0;exitDy=0;entryX=0.5;entryY=0;entryDx=0;entryDy=0;" parent="1" source="Z31dPtnMBRGQAZ9xcy2b-29" target="Z31dPtnMBRGQAZ9xcy2b-21" edge="1">
          <mxGeometry relative="1" as="geometry">
            <mxPoint x="490" y="440" as="sourcePoint" />
            <mxPoint x="650" y="440" as="targetPoint" />
          </mxGeometry>
        </mxCell>
        <mxCell id="Z31dPtnMBRGQAZ9xcy2b-36" value="" style="fontSize=12;html=1;endArrow=ERoneToMany;rounded=0;entryX=0.5;entryY=0;entryDx=0;entryDy=0;exitX=0.5;exitY=1;exitDx=0;exitDy=0;" parent="1" source="Z31dPtnMBRGQAZ9xcy2b-27" target="Z31dPtnMBRGQAZ9xcy2b-7" edge="1">
          <mxGeometry width="100" height="100" relative="1" as="geometry">
            <mxPoint x="730" y="460" as="sourcePoint" />
            <mxPoint x="730" y="510" as="targetPoint" />
          </mxGeometry>
        </mxCell>
        <mxCell id="Z31dPtnMBRGQAZ9xcy2b-37" value="" style="fontSize=12;html=1;endArrow=ERoneToMany;rounded=0;entryX=0.5;entryY=1;entryDx=0;entryDy=0;exitX=0.5;exitY=0;exitDx=0;exitDy=0;" parent="1" source="Z31dPtnMBRGQAZ9xcy2b-27" target="Z31dPtnMBRGQAZ9xcy2b-10" edge="1">
          <mxGeometry width="100" height="100" relative="1" as="geometry">
            <mxPoint x="480" y="570" as="sourcePoint" />
            <mxPoint x="480" y="540" as="targetPoint" />
          </mxGeometry>
        </mxCell>
        <mxCell id="qOnBg520B7AR1b8JbGN9-1" value="" style="fontSize=12;html=1;endArrow=ERmandOne;rounded=0;entryX=0.5;entryY=1;entryDx=0;entryDy=0;exitX=0.5;exitY=0;exitDx=0;exitDy=0;" parent="1" source="Z31dPtnMBRGQAZ9xcy2b-11" target="Z31dPtnMBRGQAZ9xcy2b-4" edge="1">
          <mxGeometry width="100" height="100" relative="1" as="geometry">
            <mxPoint x="130" y="640" as="sourcePoint" />
            <mxPoint x="230" y="540" as="targetPoint" />
          </mxGeometry>
        </mxCell>
        <mxCell id="qOnBg520B7AR1b8JbGN9-2" value="" style="fontSize=12;html=1;endArrow=ERmandOne;rounded=0;entryX=0.5;entryY=1;entryDx=0;entryDy=0;exitX=0.5;exitY=0;exitDx=0;exitDy=0;" parent="1" source="Z31dPtnMBRGQAZ9xcy2b-24" target="Z31dPtnMBRGQAZ9xcy2b-6" edge="1">
          <mxGeometry width="100" height="100" relative="1" as="geometry">
            <mxPoint x="200" y="230" as="sourcePoint" />
            <mxPoint x="200" y="180" as="targetPoint" />
          </mxGeometry>
        </mxCell>
        <mxCell id="qOnBg520B7AR1b8JbGN9-3" value="&lt;ul&gt;&lt;li&gt;&lt;font size=&quot;3&quot;&gt;Equipo: &lt;u style=&quot;font-weight: bold;&quot;&gt;id_equipo: int,&lt;/u&gt;&amp;nbsp;nombre, presidente&lt;/font&gt;&lt;/li&gt;&lt;li&gt;&lt;font size=&quot;3&quot;&gt;Jugador: &lt;u style=&quot;font-weight: bold;&quot;&gt;id_jugador: int,&lt;/u&gt;&amp;nbsp;nombre, edad, &lt;u&gt;id_equipo&lt;/u&gt;&lt;/font&gt;&lt;/li&gt;&lt;li&gt;&lt;font size=&quot;3&quot;&gt;Estadio: &lt;u style=&quot;font-weight: bold;&quot;&gt;id_estadios: int,&lt;/u&gt;&amp;nbsp;nombre&lt;/font&gt;&lt;/li&gt;&lt;li&gt;&lt;font size=&quot;3&quot;&gt;Partido:&lt;u style=&quot;font-weight: bold;&quot;&gt;&amp;nbsp;id_partido: int,&lt;/u&gt;&amp;nbsp;jornada, fecha, &lt;u&gt;id_estadios&lt;/u&gt;&lt;/font&gt;&lt;/li&gt;&lt;li&gt;&lt;font size=&quot;3&quot;&gt;Jugar: &lt;u style=&quot;font-weight: bold;&quot;&gt;id_equipo: int, id_partido: int,&lt;/u&gt;&amp;nbsp;resultado&lt;/font&gt;&lt;/li&gt;&lt;li&gt;&lt;font size=&quot;3&quot;&gt;Arbitro: &lt;u style=&quot;font-weight: bold;&quot;&gt;id_ arbitro: int&lt;/u&gt;, nombre&lt;/font&gt;&lt;/li&gt;&lt;li&gt;&lt;font size=&quot;3&quot;&gt;Arbitrar: &lt;b&gt;&lt;u&gt;id_partido: int, id_arbitro: int&lt;/u&gt;&lt;/b&gt;&lt;/font&gt;&lt;/li&gt;&lt;/ul&gt;" style="text;strokeColor=none;fillColor=none;html=1;whiteSpace=wrap;verticalAlign=middle;overflow=hidden;" parent="1" vertex="1">
          <mxGeometry x="30" y="500" width="450" height="240" as="geometry" />
        </mxCell>
      </root>
    </mxGraphModel>
  </diagram>
</mxfile>
